REM DIRINDEX 1\3,1\4,1\5,1\6,1\2\7,1\2\8,1\2\9,1\10
REM DIRNAME folder01,folder02,folder03,folder04,folder05,folder06,folder07,folder08,folder09,folder10
TITLE ""
FILE "2-42 Level 6-885-895.mp3" MP3
  TRACK 01 AUDIO
    TITLE "0:"
    INDEX 01 00:00:00
  TRACK 02 AUDIO
    TITLE "10:cjc056_3056"
    INDEX 01 00:00:07
  TRACK 03 AUDIO
    TITLE "0:"
    INDEX 01 00:01:36
  TRACK 04 AUDIO
    TITLE "7:cjc056_3057"
    INDEX 01 00:02:10
  TRACK 05 AUDIO
    TITLE "0:"
    INDEX 01 00:03:35
  TRACK 06 AUDIO
    TITLE "8:cjc056_3058"
    INDEX 01 00:03:45
  TRACK 07 AUDIO
    TITLE "0:"
    INDEX 01 00:04:46
  TRACK 08 AUDIO
    TITLE "9:cjc056_3059"
    INDEX 01 00:04:62
  TRACK 09 AUDIO
    TITLE "0:"
    INDEX 01 00:07:66
  TRACK 10 AUDIO
    TITLE "7:cjc056_3060"
    INDEX 01 00:08:44
  TRACK 11 AUDIO
    TITLE "0:"
    INDEX 01 00:09:57
  TRACK 12 AUDIO
    TITLE "8:cjc056_3061"
    INDEX 01 00:09:71
  TRACK 13 AUDIO
    TITLE "0:"
    INDEX 01 00:11:03
  TRACK 14 AUDIO
    TITLE "9:cjc056_3062"
    INDEX 01 00:11:17
  TRACK 15 AUDIO
    TITLE "0:"
    INDEX 01 00:13:53
  TRACK 16 AUDIO
    TITLE "7:cjc056_3063"
    INDEX 01 00:14:29
  TRACK 17 AUDIO
    TITLE "0:"
    INDEX 01 00:15:34
  TRACK 18 AUDIO
    TITLE "8:cjc056_3064"
    INDEX 01 00:15:48
  TRACK 19 AUDIO
    TITLE "0:"
    INDEX 01 00:16:65
  TRACK 20 AUDIO
    TITLE "9:cjc056_3065"
    INDEX 01 00:17:04
  TRACK 21 AUDIO
    TITLE "0:"
    INDEX 01 00:19:26
  TRACK 22 AUDIO
    TITLE "7:cjc056_3066"
    INDEX 01 00:20:02
  TRACK 23 AUDIO
    TITLE "0:"
    INDEX 01 00:21:11
  TRACK 24 AUDIO
    TITLE "8:cjc056_3067"
    INDEX 01 00:21:23
  TRACK 25 AUDIO
    TITLE "0:"
    INDEX 01 00:22:38
  TRACK 26 AUDIO
    TITLE "9:cjc056_3068"
    INDEX 01 00:22:52
  TRACK 27 AUDIO
    TITLE "0:"
    INDEX 01 00:25:23
  TRACK 28 AUDIO
    TITLE "7:cjc056_3069"
    INDEX 01 00:26:01
  TRACK 29 AUDIO
    TITLE "0:"
    INDEX 01 00:27:41
  TRACK 30 AUDIO
    TITLE "8:cjc056_3070"
    INDEX 01 00:27:53
  TRACK 31 AUDIO
    TITLE "0:"
    INDEX 01 00:29:03
  TRACK 32 AUDIO
    TITLE "9:cjc056_3071"
    INDEX 01 00:29:17
  TRACK 33 AUDIO
    TITLE "0:"
    INDEX 01 00:31:49
  TRACK 34 AUDIO
    TITLE "7:cjc056_3072"
    INDEX 01 00:32:25
  TRACK 35 AUDIO
    TITLE "0:"
    INDEX 01 00:33:32
  TRACK 36 AUDIO
    TITLE "8:cjc056_3073"
    INDEX 01 00:33:46
  TRACK 37 AUDIO
    TITLE "0:"
    INDEX 01 00:36:19
  TRACK 38 AUDIO
    TITLE "9:cjc056_3074"
    INDEX 01 00:36:31
  TRACK 39 AUDIO
    TITLE "0:"
    INDEX 01 00:38:18
  TRACK 40 AUDIO
    TITLE "7:cjc056_3075"
    INDEX 01 00:38:69
  TRACK 41 AUDIO
    TITLE "0:"
    INDEX 01 00:40:17
  TRACK 42 AUDIO
    TITLE "8:cjc056_3076"
    INDEX 01 00:40:30
  TRACK 43 AUDIO
    TITLE "0:"
    INDEX 01 00:41:65
  TRACK 44 AUDIO
    TITLE "9:cjc056_3077"
    INDEX 01 00:42:04
  TRACK 45 AUDIO
    TITLE "0:"
    INDEX 01 00:45:39
  TRACK 46 AUDIO
    TITLE "7:cjc056_3078"
    INDEX 01 00:46:17
  TRACK 47 AUDIO
    TITLE "0:"
    INDEX 01 00:47:19
  TRACK 48 AUDIO
    TITLE "8:cjc056_3079"
    INDEX 01 00:47:34
  TRACK 49 AUDIO
    TITLE "0:"
    INDEX 01 00:48:48
  TRACK 50 AUDIO
    TITLE "9:cjc056_3080"
    INDEX 01 00:48:61
  TRACK 51 AUDIO
    TITLE "0:"
    INDEX 01 00:50:64
  TRACK 52 AUDIO
    TITLE "7:cjc056_3081"
    INDEX 01 00:51:42
  TRACK 53 AUDIO
    TITLE "0:"
    INDEX 01 00:52:73
  TRACK 54 AUDIO
    TITLE "8:cjc056_3082"
    INDEX 01 00:53:13
  TRACK 55 AUDIO
    TITLE "0:"
    INDEX 01 00:54:66
  TRACK 56 AUDIO
    TITLE "9:cjc056_3083"
    INDEX 01 00:55:04
  TRACK 57 AUDIO
    TITLE "0:"
    INDEX 01 00:58:22
  TRACK 58 AUDIO
    TITLE "7:cjc056_3084"
    INDEX 01 00:58:73
  TRACK 59 AUDIO
    TITLE "0:"
    INDEX 01 01:00:21
  TRACK 60 AUDIO
    TITLE "8:cjc056_3085"
    INDEX 01 01:00:33
  TRACK 61 AUDIO
    TITLE "0:"
    INDEX 01 01:02:26
  TRACK 62 AUDIO
    TITLE "9:cjc056_3086"
    INDEX 01 01:02:42
  TRACK 63 AUDIO
    TITLE "0:"
    INDEX 01 01:05:13
  TRACK 64 AUDIO
    TITLE "7:cjc056_3087"
    INDEX 01 01:05:64
  TRACK 65 AUDIO
    TITLE "0:"
    INDEX 01 01:06:71
  TRACK 66 AUDIO
    TITLE "8:cjc056_3088"
    INDEX 01 01:07:10
  TRACK 67 AUDIO
    TITLE "0:"
    INDEX 01 01:08:03
  TRACK 68 AUDIO
    TITLE "9:cjc056_3089"
    INDEX 01 01:08:13
  TRACK 69 AUDIO
    TITLE "0:"
    INDEX 01 01:11:52
